<?xml version="1.0" standalone="no"?>
<!DOCTYPE svg PUBLIC "-//W3C//DTD SVG 20010904//EN"
 "http://www.w3.org/TR/2001/REC-SVG-20010904/DTD/svg10.dtd">
<svg version="1.0" xmlns="http://www.w3.org/2000/svg"
 width="925.000000pt" height="1280.000000pt" viewBox="0 0 925.000000 1280.000000"
 preserveAspectRatio="xMidYMid meet" fill="#61dafb">
<g transform="translate(0.000000,1280.000000) scale(0.100000,-0.100000)"
 stroke="none">
<path d="M5956 12789 c-514 -50 -1106 -239 -1816 -581 -97 -46 -182 -82 -190
-80 -8 2 -62 23 -120 45 -83 32 -116 51 -156 89 l-51 48 -119 -36 c-65 -20
-130 -39 -144 -44 -14 -4 -23 -13 -21 -21 14 -53 14 -54 0 -41 -26 24 -56 11
-164 -71 -102 -78 -110 -86 -108 -116 1 -23 -3 -31 -12 -27 -31 12 -87 18
-110 12 -34 -9 -235 -233 -235 -263 0 -54 105 -47 392 26 128 32 247 62 263
66 20 4 -8 -20 -85 -72 -178 -121 -334 -241 -470 -362 -134 -119 -405 -388
-481 -477 l-68 -81 -143 28 c-259 52 -370 63 -467 50 -107 -15 -171 -42 -215
-92 -60 -66 -60 -147 0 -218 75 -87 170 -132 372 -177 64 -14 119 -28 121 -30
2 -2 -38 -89 -88 -194 -180 -373 -242 -647 -196 -863 29 -138 97 -241 181
-273 58 -22 168 -14 279 20 43 14 81 23 84 21 2 -3 -27 -38 -65 -80 -223 -243
-337 -398 -434 -590 -82 -162 -120 -285 -127 -418 l-6 -108 -88 -81 c-119
-109 -166 -142 -287 -200 l-102 -50 111 -118 c107 -115 172 -170 197 -170 7 0
23 -7 36 -15 21 -14 27 -12 84 23 98 59 216 157 342 284 l118 119 188 50 c104
27 248 67 319 89 72 21 153 45 180 54 28 8 127 37 220 66 94 28 199 57 235 65
86 18 222 29 255 21 27 -7 27 -8 23 -79 -5 -75 -57 -502 -109 -887 -29 -221
-75 -471 -103 -560 l-13 -45 -144 3 c-361 6 -553 -33 -836 -168 -225 -107
-393 -221 -610 -414 -173 -153 -565 -552 -606 -616 -55 -87 -95 -193 -118
-309 -43 -223 -105 -383 -199 -511 -142 -193 -308 -665 -445 -1264 -42 -183
-58 -320 -57 -486 1 -118 -4 -199 -18 -285 -33 -203 -67 -753 -90 -1465 -6
-179 -18 -453 -26 -609 -8 -156 -12 -287 -8 -290 3 -3 117 -9 252 -13 298 -9
6845 -10 6919 -1 47 5 52 8 48 27 -2 11 -9 57 -15 101 -25 175 -100 638 -105
643 -12 12 -3 -96 20 -252 28 -187 31 -241 13 -252 -7 -4 -57 -23 -112 -41
-146 -49 -299 -126 -345 -173 l-39 -40 -710 0 -710 0 -39 48 c-72 87 -288 400
-281 407 2 2 30 -28 63 -67 67 -79 210 -217 268 -259 37 -27 67 -29 67 -5 0
55 -353 426 -406 426 -7 0 -14 -7 -14 -16 0 -34 -25 -3 -85 105 l-63 112 101
97 c56 53 257 248 447 433 190 185 383 371 430 413 81 73 116 94 104 61 -4
-10 0 -15 11 -15 17 0 38 22 117 120 41 51 148 140 205 171 19 10 28 10 41 1
40 -27 161 -90 203 -106 26 -10 57 -16 70 -14 23 4 23 5 -14 39 -20 20 -76 59
-123 87 -79 47 -84 51 -64 62 24 13 49 6 195 -58 100 -44 151 -57 161 -41 9
16 -23 46 -119 111 -68 46 -86 62 -78 72 17 21 356 156 390 156 14 0 21 -27
44 -162 15 -90 65 -395 112 -678 79 -474 112 -652 114 -608 1 15 -51 363 -94
633 -96 604 -127 815 -121 831 3 7 23 18 45 24 29 7 42 17 46 33 6 25 -37 206
-85 355 -92 285 -284 697 -441 947 -86 136 -218 319 -286 395 -36 40 -45 45
-84 45 -42 0 -43 1 -166 140 -67 77 -144 164 -169 193 -26 29 -43 56 -38 60 5
5 36 19 69 32 147 58 276 152 435 316 235 243 415 506 669 979 113 210 126
230 138 222 5 -3 35 -64 67 -136 32 -71 66 -137 76 -146 14 -13 39 -17 97 -18
66 -1 102 6 225 43 82 25 148 49 148 54 0 6 -22 44 -50 85 -45 70 -129 237
-145 288 l-6 22 53 -18 c91 -32 245 -99 488 -216 325 -156 361 -167 404 -120
62 67 88 273 74 577 -8 168 -17 239 -59 458 -110 569 -317 1081 -614 1516 -73
108 -78 128 -73 321 l3 121 80 -25 c44 -13 107 -32 140 -43 33 -10 115 -35
182 -55 l121 -38 6 -56 c4 -31 14 -90 23 -132 15 -64 21 -77 38 -78 11 -1 45
-4 77 -7 52 -5 57 -4 64 18 5 17 95 172 108 185 2 2 107 -29 376 -111 251 -77
246 -76 293 -30 42 42 62 100 52 151 -13 70 -93 66 -142 -9 -14 -21 -28 -38
-31 -38 -19 0 -373 111 -450 142 l-53 21 7 141 c3 78 8 143 10 144 7 9 154 43
207 49 68 7 87 26 87 86 0 31 -7 46 -36 75 -19 19 -42 49 -51 66 -43 84 -129
154 -218 180 -103 29 -536 118 -940 192 -49 9 -96 19 -103 23 -9 5 17 27 75
66 48 32 145 100 214 152 l127 93 -5 47 c-12 124 -84 322 -154 428 -54 81
-158 183 -246 243 -65 44 -199 113 -255 131 -42 14 -46 28 -28 91 20 69 58
277 70 380 16 140 8 510 -14 602 -44 188 -116 318 -251 453 -111 111 -197 166
-344 221 -198 74 -475 101 -765 73z m704 -1729 c549 -38 898 -181 1085 -445
53 -75 110 -175 98 -175 -4 0 -24 28 -42 61 -154 269 -560 465 -1031 498 -281
21 -751 9 -1050 -24 -121 -14 -596 -85 -677 -101 -37 -7 -145 -118 -705 -724
-394 -426 -443 -476 -452 -462 -3 6 45 63 107 129 62 65 318 340 570 611 252
270 462 492 466 492 4 0 73 11 152 25 601 102 1102 141 1479 115z m-45 -80
c304 -16 435 -36 612 -95 199 -66 323 -144 465 -293 88 -94 131 -166 181 -312
46 -135 47 -130 -23 -193 -34 -31 -101 -83 -148 -117 -89 -63 -271 -175 -276
-168 -1 1 -24 35 -51 73 -126 179 -267 262 -516 301 -128 20 -520 14 -699 -11
-519 -72 -1096 -202 -2052 -463 -98 -27 -178 -45 -178 -41 0 9 75 94 185 209
50 52 264 282 477 510 212 228 399 427 414 441 24 22 48 29 144 43 63 9 171
26 240 37 485 75 851 98 1225 79z m-4758 -135 c158 -21 472 -77 913 -164 333
-65 403 -81 416 -92 6 -5 29 -60 50 -122 22 -62 64 -163 96 -224 31 -62 53
-115 50 -117 -8 -5 -320 52 -902 165 -201 39 -411 79 -467 89 -295 55 -449
104 -523 167 -152 131 -40 309 197 312 29 1 105 -6 170 -14z m3600 -1031 c705
-211 850 -260 858 -285 4 -11 5 -23 2 -26 -10 -10 -1037 315 -1099 348 -20 11
-16 29 7 29 7 0 112 -30 232 -66z m128 -116 c512 -158 726 -230 732 -244 3 -8
3 -20 0 -28 -6 -15 -7 -14 -472 132 -390 123 -641 204 -658 213 -13 8 -15 14
-7 29 12 22 -23 31 405 -102z m2134 46 c232 -44 339 -65 544 -103 301 -57 380
-85 451 -161 43 -46 64 -85 51 -98 -4 -4 -270 -7 -592 -7 l-585 0 -48 135
c-26 74 -57 161 -69 194 -22 58 -22 86 0 86 6 0 118 -21 248 -46z m-3339 -204
c0 -7 7 -7 21 1 22 11 22 10 17 -56 -3 -37 -10 -71 -15 -76 -13 -13 -58 104
-49 126 6 17 26 21 26 5z m-66 -9 c3 -5 0 -11 -8 -14 -8 -3 -16 -16 -19 -29
-3 -18 -5 -17 -6 8 -1 39 18 60 33 35z m143 -33 c-3 -8 -6 -5 -6 6 -1 11 2 17
5 13 3 -3 4 -12 1 -19z m-188 -98 c0 -34 -3 -40 -9 -25 -5 11 -9 40 -9 65 0
34 3 40 9 25 5 -11 9 -40 9 -65z m-915 18 c14 -13 32 -41 39 -63 l14 -40 369
-5 369 -5 3 -32 3 -33 -418 0 -419 0 -26 28 c-50 52 -58 113 -21 155 22 23 57
21 87 -5z m1188 -205 c-9 -64 -9 -61 -9 62 0 118 0 125 9 68 6 -38 6 -86 0
-130z m-343 70 c-1 -122 -16 -107 -18 18 -1 66 3 89 16 89 2 0 3 -48 2 -107z
m291 -26 c0 -61 -4 -97 -9 -91 -18 18 -18 210 -1 199 6 -3 10 -51 10 -108z
m-149 70 c-1 -12 -15 -9 -19 4 -3 6 1 10 8 8 6 -3 11 -8 11 -12z m1980 -4 c6
-6 8 -16 5 -22 -8 -12 -1680 -16 -1723 -5 -13 4 -23 12 -23 19 0 8 10 16 23
18 12 3 401 4 864 3 625 -1 845 -4 854 -13z m2488 11 c17 -4 36 -15 42 -25 10
-19 -7 -19 -618 -17 -579 3 -628 4 -631 20 -2 12 5 18 30 21 55 7 1143 7 1177
1z m-4404 -50 c0 -12 -8 -20 -22 -22 -25 -4 -31 16 -11 36 17 17 33 10 33 -14z
m1920 -44 c36 -30 -2 -35 -268 -38 -438 -5 -1439 12 -1462 25 -16 10 -17 13
-5 17 26 10 303 13 1022 11 567 -1 699 -4 713 -15z m2527 2 c6 -6 5 -13 -2
-17 -18 -11 -1149 -19 -1188 -9 -58 16 -34 29 65 35 150 10 1114 2 1125 -9z
m-4602 -13 c0 -6 -4 -7 -10 -4 -5 3 -10 11 -10 16 0 6 5 7 10 4 6 -3 10 -11
10 -16z m11 -136 c-8 -14 -10 -10 -11 24 0 61 14 89 18 36 2 -24 -1 -51 -7
-60z m3818 87 c169 -9 310 -27 324 -40 5 -5 -5 -18 -22 -31 -17 -12 -51 -49
-76 -80 l-45 -57 -112 33 c-62 19 -201 63 -308 99 -107 36 -197 67 -200 67 -3
1 13 5 35 9 59 10 217 11 404 0z m346 0 c4 -6 -5 -10 -20 -10 -15 0 -24 4 -20
10 3 6 12 10 20 10 8 0 17 -4 20 -10z m170 -10 c-28 -12 -123 -12 -130 0 -4 6
22 10 72 9 53 0 72 -3 58 -9z m-4181 -36 c3 -9 6 -39 6 -68 0 -52 -1 -53 -30
-53 -39 0 -43 17 -19 82 21 57 32 67 43 39z m3393 -47 c349 -110 448 -148 440
-170 -6 -18 -49 -8 -342 85 -222 70 -282 98 -260 120 6 6 88 -12 162 -35z
m643 9 c0 -8 5 -16 12 -18 8 -3 1 -22 -21 -57 -19 -28 -35 -50 -37 -49 -7 7
28 138 37 138 5 0 9 -6 9 -14z m-4138 -68 c-15 -15 -32 0 -32 28 l0 24 21 -21
c14 -14 18 -24 11 -31z m158 27 c0 -8 -4 -15 -10 -15 -5 0 -10 7 -10 15 0 8 5
15 10 15 6 0 10 -7 10 -15z m3306 -41 c123 -35 371 -113 417 -131 20 -8 37
-21 37 -29 0 -28 -44 -21 -240 38 -305 92 -352 111 -336 137 10 16 23 14 122
-15z m-1176 -150 c451 -243 815 -349 1024 -298 l29 7 -6 -174 c-11 -310 -75
-655 -204 -1110 -3 -12 -26 -20 -81 -28 -43 -7 -131 -26 -196 -42 -66 -16
-121 -29 -123 -29 -2 0 -3 -4 -3 -9 0 -6 10 -7 28 -1 44 15 178 30 263 30 79
0 80 0 74 -22 -12 -38 -114 -302 -139 -360 l-24 -54 -134 -11 c-153 -13 -201
-30 -322 -113 -86 -59 -105 -87 -54 -76 102 22 411 35 422 18 12 -20 -279
-616 -434 -886 -367 -640 -701 -993 -1040 -1098 -106 -32 -255 -32 -360 1
-186 58 -362 187 -530 389 -60 72 -78 88 -89 79 -7 -6 -50 -57 -95 -114 -156
-194 -244 -400 -396 -928 -71 -246 -80 -272 -91 -253 -4 7 -37 130 -74 273
-86 336 -184 675 -241 834 -130 360 -330 642 -544 767 -103 60 -208 109 -272
126 -27 6 -48 16 -48 21 0 5 34 88 76 184 151 353 213 576 294 1059 27 164 59
332 70 373 31 113 192 575 204 583 6 4 27 5 46 2 53 -8 184 -36 192 -40 4 -3
1 -26 -7 -52 -51 -173 -85 -420 -85 -624 0 -230 30 -358 101 -429 57 -57 96
-52 172 20 35 33 67 79 67 97 0 4 -28 -23 -63 -60 -54 -58 -67 -66 -98 -66
-74 0 -115 67 -145 243 -21 122 -14 384 15 552 31 182 83 327 107 302 3 -3 -8
-54 -25 -114 -38 -134 -71 -324 -71 -410 0 -90 16 -71 23 29 12 156 70 420
100 456 16 20 53 6 144 -54 103 -69 123 -93 123 -153 l1 -46 15 28 c15 28 34
28 34 1 0 -8 16 -31 37 -51 49 -50 117 -199 161 -355 31 -107 39 -126 49 -112
6 9 35 74 63 144 114 285 252 534 358 651 70 76 171 133 267 150 117 21 105 8
140 159 40 171 57 228 62 213 2 -7 -3 -47 -11 -90 -9 -43 -18 -103 -21 -133
l-7 -55 42 75 c113 203 295 391 490 506 122 72 331 145 480 167 60 9 110 -8
260 -89z m1709 -18 c-11 -38 -23 -66 -26 -63 -5 6 8 55 29 110 20 52 18 20 -3
-47z m222 3 c-6 -24 -9 -28 -10 -12 -1 24 9 56 16 50 2 -3 0 -20 -6 -38z
m-141 7 c0 -8 -4 -17 -9 -21 -12 -7 -24 12 -16 25 9 15 25 12 25 -4z m420
-116 c302 -90 264 -86 307 -34 31 38 41 45 67 42 29 -3 31 -6 34 -45 3 -36 -2
-47 -34 -82 -23 -26 -45 -41 -60 -41 -37 0 -425 120 -526 162 -39 17 -48 25
-48 45 0 30 -5 31 260 -47z m-312 -5 c-6 -14 -15 -25 -20 -25 -9 0 -4 14 15
38 15 19 18 14 5 -13z m-170 -77 c-3 -46 -6 -53 -25 -56 -28 -4 -29 8 -7 65
22 58 36 54 32 -9z m-6819 -905 c-89 -90 -166 -148 -251 -188 -81 -38 -109
-45 -115 -30 -2 6 23 23 54 39 87 42 209 126 292 202 94 84 108 67 20 -23z
m96 -3 c30 -45 86 -67 205 -80 58 -6 106 -12 107 -13 7 -8 -317 -299 -381
-342 l-79 -54 -56 49 c-106 92 -197 190 -183 198 155 89 196 118 271 189 47
45 88 82 91 83 3 0 14 -14 25 -30z m-295 -395 c35 -36 62 -65 59 -65 -2 0 -34
29 -69 65 -35 36 -62 65 -59 65 2 0 34 -29 69 -65z m5511 -725 c-30 -26 -49
-26 -26 0 10 11 25 20 34 20 12 -1 10 -5 -8 -20z m-3823 -242 c4 -32 -9 -35
-48 -13 -14 8 -37 14 -53 15 -58 0 -60 -91 -2 -106 30 -7 31 -14 5 -56 -29
-48 -26 -84 8 -95 37 -12 60 -6 68 20 6 21 7 20 30 -7 13 -15 24 -36 24 -46 0
-10 -28 -80 -61 -154 -71 -157 -44 -144 -244 -121 -71 8 -134 15 -140 15 -5 0
6 8 25 18 22 11 36 25 38 40 5 32 -26 64 -57 60 -24 -3 -26 1 -29 37 -4 47
-17 65 -46 65 -31 0 -46 -19 -46 -57 0 -38 -2 -39 -44 -14 -65 39 -98 33 -111
-20 -8 -32 16 -59 51 -59 32 0 30 -12 -8 -50 -40 -41 -46 -43 -218 -74 -80
-15 -183 -36 -230 -47 -47 -11 -114 -27 -150 -36 -122 -28 -343 -94 -407 -119
-36 -14 -67 -24 -69 -21 -11 10 409 386 495 443 36 23 43 25 75 14 20 -6 36
-15 36 -18 -1 -4 -26 -23 -57 -42 -67 -43 -91 -73 -73 -95 18 -22 49 -18 86
10 l32 25 7 -30 c4 -16 11 -32 16 -36 31 -19 109 39 109 79 0 21 7 26 46 36
53 13 104 59 104 91 0 20 -4 22 -30 17 -16 -4 -30 -5 -30 -4 0 2 11 18 25 37
36 49 33 70 -9 70 -40 0 -81 -30 -90 -65 -8 -31 -16 -31 -46 0 -20 21 -21 27
-9 41 34 42 398 204 539 241 132 34 195 41 350 39 l135 -1 3 -27z m76 -21 c-2
-57 -19 -68 -40 -24 -20 43 -13 70 18 65 20 -3 23 -9 22 -41z m61 -7 c-8 -16
-19 -32 -25 -35 -13 -8 -13 41 1 66 8 16 13 18 24 9 12 -10 12 -16 0 -40z
m-169 -21 c25 -21 15 -29 -36 -29 -47 0 -50 1 -50 26 0 25 2 26 36 21 20 -3
42 -11 50 -18z m4330 -11 c12 -11 32 -47 44 -81 12 -34 51 -117 86 -184 l63
-122 -57 -16 c-31 -10 -106 -30 -165 -45 l-109 -29 -58 122 c-81 169 -89 203
-66 270 37 107 56 119 166 111 55 -5 81 -12 96 -26z m125 -112 c26 -60 71
-144 99 -188 54 -86 59 -101 33 -96 -25 5 -116 145 -157 243 -75 179 -53 215
25 41z m-4386 59 c0 -13 -8 -21 -23 -23 -26 -4 -42 25 -21 39 22 14 44 6 44
-16z m60 -14 c-3 -12 -13 -21 -21 -21 -18 0 -18 9 3 32 20 22 27 17 18 -11z
m-135 -50 c0 -36 -22 -66 -44 -58 -22 9 -20 39 5 71 24 31 39 26 39 -13z m94
-14 c13 -10 16 -20 12 -35 -12 -35 -36 -23 -50 26 -8 26 9 30 38 9z m-934 -72
c0 -2 -14 -20 -31 -40 -36 -41 -67 -49 -48 -12 19 36 41 57 61 57 10 0 18 -2
18 -5z m-155 -60 c0 -17 -8 -20 -47 -23 -52 -3 -57 2 -31 30 23 26 78 21 78
-7z m574 -34 c11 -7 11 -17 -4 -60 -9 -28 -18 -51 -20 -51 -2 0 -11 23 -20 51
-15 43 -15 53 -4 60 8 5 19 9 24 9 6 0 16 -4 24 -9z m-409 -9 c0 -19 -41 -44
-79 -49 -23 -3 -41 -3 -41 0 0 3 19 17 43 31 42 26 77 34 77 18z m-140 -17 c0
-17 -46 -42 -57 -32 -8 9 27 47 44 47 7 0 13 -7 13 -15z m435 -43 c28 -14 28
-16 10 -23 -53 -20 -105 1 -91 37 6 17 28 13 81 -14z m-556 -30 c-11 -18 -59
-52 -73 -52 -20 0 0 30 36 53 46 29 56 29 37 -1z m109 -24 c3 -16 -49 -58 -70
-58 -11 0 -10 24 2 55 8 21 16 26 37 23 17 -2 29 -10 31 -20z m638 7 c10 -24
-13 -43 -56 -47 -22 -2 -40 -2 -40 -1 0 2 15 17 33 33 36 33 55 37 63 15z
m-118 -22 c3 -19 -1 -23 -22 -23 -28 0 -41 14 -32 36 9 24 50 13 54 -13z m-78
-37 c0 -16 -7 -27 -21 -31 -31 -10 -35 2 -9 30 29 31 30 31 30 1z m4895 5
c-12 -12 -65 -26 -65 -17 0 3 15 10 33 15 43 12 42 12 32 2z m-4395 -90 c222
-56 368 -138 511 -288 128 -134 232 -305 312 -513 58 -148 171 -497 203 -624
28 -111 28 -149 0 -154 -16 -4 -18 0 -12 31 8 44 -1 66 -31 78 -38 14 -63 -5
-63 -48 0 -39 3 -38 -75 -10 -52 19 -75 8 -75 -36 0 -40 15 -57 52 -57 l29 0
-36 -52 c-40 -60 -43 -83 -16 -98 35 -18 69 -12 84 16 l13 26 28 -36 c47 -63
114 -39 102 36 -6 35 -4 39 20 48 37 14 41 13 49 -17 4 -16 49 -203 101 -417
69 -287 91 -392 82 -397 -20 -13 -30 2 -25 36 8 47 -16 77 -56 73 -27 -2 -34
-9 -43 -38 -13 -37 -13 -37 -93 -24 -47 8 -61 -2 -61 -43 0 -26 35 -53 67 -53
22 0 22 -2 -12 -46 -41 -53 -44 -77 -13 -98 31 -22 51 -20 78 9 l24 25 19 -30
c26 -41 65 -50 89 -20 22 27 23 53 3 70 -20 16 -3 30 37 30 31 0 26 12 115
-290 50 -172 57 -205 57 -282 0 -48 -2 -90 -5 -92 -3 -3 -24 4 -47 15 -52 26
-89 20 -98 -18 -10 -37 7 -57 50 -63 l37 -5 -29 -40 c-41 -56 -48 -82 -26
-106 23 -25 52 -24 81 3 l23 22 33 -32 c36 -35 52 -39 81 -17 72 55 27 -65
-84 -222 l-55 -78 -5 55 c-5 54 -6 55 -38 58 -41 4 -58 -9 -66 -50 l-6 -32
-34 33 c-18 18 -52 71 -74 119 -43 90 -132 318 -132 337 0 6 14 15 32 20 41
13 57 38 40 65 -18 30 -15 37 23 50 48 16 60 41 39 81 -13 27 -20 30 -45 25
-28 -5 -29 -4 -29 30 0 63 -26 86 -74 68 -8 -3 -18 -21 -22 -40 -10 -54 -35
-40 -62 36 -26 73 -182 654 -182 677 0 12 8 14 35 10 62 -10 92 55 40 89 l-25
16 30 36 c38 46 38 63 0 85 -22 14 -34 15 -49 7 -31 -16 -39 -12 -51 25 -6 19
-20 37 -31 40 -29 10 -45 40 -95 181 -24 71 -63 176 -86 232 -41 102 -42 105
-25 133 12 22 14 36 7 55 -15 37 -13 42 19 49 16 3 36 14 46 25 15 17 15 21 1
48 -12 23 -24 32 -48 34 -30 3 -32 5 -32 48 -1 39 -4 45 -25 48 -43 7 -68 -6
-74 -38 -8 -37 -16 -37 -68 -3 -39 26 -159 164 -159 184 0 5 7 20 15 33 14 21
14 25 -5 49 -11 14 -20 27 -20 30 0 3 16 8 35 11 21 4 41 17 51 31 15 23 15
27 0 50 -11 17 -26 25 -46 25 -27 0 -29 2 -32 48 -3 45 -4 47 -36 50 -40 4
-62 -12 -62 -44 0 -28 -8 -29 -57 -9 -60 25 -80 21 -88 -22 -7 -39 -3 -46 51
-80 41 -26 -34 -13 -103 18 -37 17 -105 44 -150 61 -46 16 -83 33 -83 38 0 4
7 13 15 20 19 16 19 29 -1 51 -20 22 -13 35 25 42 28 6 61 31 61 46 0 20 -43
60 -68 63 -25 3 -27 6 -24 44 4 52 -13 68 -59 56 -29 -7 -35 -14 -42 -49 l-8
-41 -42 24 c-54 30 -73 30 -93 -1 -26 -39 -6 -73 46 -81 l41 -7 -25 -26 c-14
-14 -32 -43 -41 -63 -9 -24 -23 -39 -38 -42 -12 -3 -112 -7 -222 -10 -346 -9
-614 -60 -1110 -212 -60 -19 -116 -34 -122 -34 -18 0 -16 63 3 147 28 125 134
304 232 394 76 70 205 153 294 190 123 51 654 174 879 204 162 22 518 14 629
-14z m-344 -416 c7 -17 -14 -85 -26 -85 -5 0 -14 16 -20 35 -9 28 -9 39 0 50
16 19 39 19 46 0z m-138 -45 c41 -25 41 -36 -4 -44 -52 -10 -83 21 -52 52 16
16 17 15 56 -8z m210 -70 c5 -29 -13 -40 -63 -40 l-40 1 38 35 c42 39 60 40
65 4z m-120 -11 c3 -17 -23 -33 -39 -23 -5 3 -9 14 -9 25 0 15 6 20 22 17 13
-2 24 -10 26 -19z m-82 -105 c-3 -8 -15 -14 -26 -14 -27 0 -26 34 3 77 l22 33
3 -41 c2 -23 1 -48 -2 -55z m117 20 c28 -28 26 -54 -4 -54 -17 0 -59 52 -59
73 0 17 39 5 63 -19z m-53 -59 c0 -8 -8 -11 -20 -8 -27 7 -36 23 -19 34 15 9
39 -7 39 -26z m588 -23 c5 -31 -27 -80 -39 -61 -10 17 -12 73 -2 83 14 13 38
0 41 -22z m-692 -7 c469 -62 766 -288 989 -750 109 -225 171 -417 345 -1070
204 -767 264 -945 426 -1267 46 -92 84 -173 84 -180 0 -31 -38 36 -169 297
-158 316 -336 648 -466 870 -553 944 -1098 1461 -1710 1620 -207 54 -404 66
-628 40 -190 -22 -387 -69 -514 -121 -27 -11 -10 45 86 290 13 34 563 195 826
241 246 44 537 56 731 30z m560 -30 c43 -18 36 -35 -15 -35 -43 0 -68 19 -49
38 15 15 21 15 64 -3z m1734 -29 c0 -15 -37 -32 -48 -22 -6 6 27 35 41 36 4 0
7 -6 7 -14z m68 -14 c2 -7 -6 -12 -17 -12 -21 0 -27 11 -14 24 9 9 26 2 31
-12z m-1718 -22 c12 -23 6 -40 -16 -40 -17 0 -28 24 -20 45 8 21 23 19 36 -5z
m125 -4 c0 -14 -10 -22 -33 -28 -56 -15 -68 -8 -42 25 27 34 75 35 75 3z
m1436 -59 c-14 -15 -21 -17 -21 -8 0 21 33 56 38 41 3 -7 -5 -22 -17 -33z
m123 17 c30 -31 32 -42 9 -51 -16 -6 -73 46 -73 67 0 19 38 10 64 -16z m139
-47 l76 -73 -47 -90 -47 -89 -5 55 c-5 51 -7 55 -32 58 -38 5 -68 -14 -68 -43
0 -35 -12 -37 -65 -14 -44 20 -48 20 -66 3 -22 -20 -25 -66 -5 -83 8 -6 28
-13 45 -14 17 -1 31 -4 31 -6 0 -2 -13 -19 -30 -37 -36 -41 -47 -79 -30 -99
16 -19 59 -19 84 0 11 8 26 15 34 15 38 0 -36 -222 -86 -260 -48 -36 -52 -40
-52 -65 0 -33 -14 -39 -49 -20 -42 21 -77 19 -95 -7 -32 -46 -10 -78 53 -78
l31 0 -36 -46 c-46 -61 -43 -92 9 -117 20 -9 37 -18 37 -20 0 -14 -91 -270
-104 -292 l-17 -30 5 42 c4 30 2 46 -10 57 -38 39 -102 2 -91 -53 l6 -30 -54
25 c-74 34 -97 27 -93 -29 3 -38 6 -43 36 -52 17 -5 32 -12 32 -16 0 -15 -53
-70 -60 -62 -10 10 -70 261 -70 291 0 15 6 22 20 22 27 0 42 34 38 83 -3 39
-1 42 25 45 33 4 61 42 52 72 -4 11 -17 28 -31 36 -18 13 -23 22 -18 43 11 52
64 230 80 267 l16 37 33 -36 c19 -20 39 -37 45 -37 20 0 62 50 56 66 -20 52
-19 64 7 64 14 0 35 8 48 19 21 17 22 21 10 50 -13 31 -17 33 -56 35 -16 1
-21 11 -27 46 -4 25 -10 59 -13 75 -5 25 3 49 38 119 63 122 91 156 127 156
20 0 35 8 46 25 l16 24 33 -35 c39 -41 59 -41 89 -1 17 23 18 31 8 47 -15 25
-15 30 1 30 7 0 48 -33 90 -73z m-1901 38 c0 -5 -5 -11 -11 -13 -6 -2 -11 4
-11 13 0 9 5 15 11 13 6 -2 11 -8 11 -13z m117 -36 l34 -20 -22 -22 -22 -22
-25 28 c-46 53 -26 73 35 36z m1975 -163 c169 -106 260 -135 444 -143 l132 -6
113 -117 c132 -137 231 -256 223 -268 -3 -5 -43 -31 -88 -57 -116 -67 -179
-115 -287 -220 -228 -220 -375 -437 -774 -1146 -262 -465 -270 -479 -279 -479
-9 0 -108 301 -182 553 l-56 188 91 267 c304 892 381 1102 476 1301 62 132 86
171 106 171 5 0 41 -20 81 -44z m-234 -28 c0 -38 -12 -68 -25 -68 -16 0 -25
22 -25 61 0 24 4 29 25 29 19 0 25 -5 25 -22z m-122 -46 c31 -20 27 -32 -10
-32 -70 0 -102 26 -61 48 18 11 35 7 71 -16z m-1289 -21 c12 -8 13 -16 2 -51
-14 -47 -31 -48 -45 -2 -6 22 -5 36 4 47 14 17 20 18 39 6z m1345 -27 c20 -8
21 -40 2 -47 -19 -8 -38 16 -30 37 7 18 7 18 28 10z m-1439 -62 c-6 -7 -35 18
-35 31 0 5 9 2 20 -8 11 -10 18 -20 15 -23z m1497 16 c-7 -7 -12 -8 -12 -2 0
6 3 14 7 17 3 4 9 5 12 2 2 -3 -1 -11 -7 -17z m-122 -40 c-4 -44 -8 -53 -25
-53 -28 0 -30 28 -3 69 13 20 25 36 28 36 3 0 3 -24 0 -52z m-280 13 c0 -10
-5 -32 -11 -50 -9 -25 -14 -29 -25 -20 -17 14 -18 30 -2 64 13 29 38 34 38 6z
m-919 -7 c11 -14 10 -19 -10 -35 -14 -11 -38 -19 -60 -19 l-36 1 39 34 c45 40
49 41 67 19z m-121 -19 c10 -12 9 -16 -4 -21 -16 -6 -46 11 -46 27 0 15 37 10
50 -6z m1415 -4 c0 -23 -23 -24 -35 -1 -10 19 -9 21 12 18 13 -2 23 -9 23 -17z
m-298 -67 c9 -23 -16 -42 -67 -50 l-45 -7 34 37 c37 38 68 46 78 20z m-1085
-21 c19 -17 24 -43 9 -43 -8 0 -41 43 -41 55 0 10 13 5 32 -12z m958 -3 c0
-11 -7 -20 -15 -20 -15 0 -21 21 -8 33 12 13 23 7 23 -13z m35 -83 c18 -15 24
-28 20 -40 -13 -32 -46 -15 -74 41 -10 19 -9 22 8 22 11 0 32 -10 46 -23z
m-511 -33 c26 -10 14 -94 -14 -94 -12 0 -24 65 -16 85 6 17 8 17 30 9z m-114
-59 c33 -17 38 -30 14 -39 -34 -13 -73 -6 -79 14 -13 41 15 51 65 25z m214
-60 c8 -22 -22 -45 -60 -45 -41 0 -43 11 -8 39 31 25 60 27 68 6z m-129 -14
c0 -8 -8 -19 -17 -25 -22 -13 -44 5 -34 29 7 20 51 16 51 -4z m795 0 c0 -25
-14 -71 -21 -71 -10 0 -12 63 -2 73 9 10 23 9 23 -2z m-866 -88 c-10 -42 -38
-52 -58 -21 -8 14 -5 23 19 48 36 38 53 27 39 -27z m752 32 c46 -19 39 -39
-13 -43 -34 -3 -42 0 -48 17 -7 22 0 41 16 41 5 0 26 -7 45 -15z m-645 -33
c15 -13 20 -25 16 -36 -10 -26 -38 -15 -60 22 -19 32 -19 32 1 32 11 0 30 -8
43 -18z m719 -37 c0 -8 -5 -17 -11 -21 -16 -9 -30 18 -17 33 12 15 28 8 28
-12z m-69 -128 c-12 -12 -40 -2 -47 17 -3 8 7 33 23 57 l28 43 3 -54 c2 -29
-1 -57 -7 -63z m-306 13 c8 -13 -13 -40 -31 -40 -14 0 -19 31 -7 43 10 10 31
8 38 -3z m-61 -135 c-5 -13 -34 -30 -34 -19 0 3 5 14 11 25 11 22 31 17 23 -6z
m-519 -25 c16 -32 20 -80 6 -80 -14 0 -44 86 -35 101 8 14 12 11 29 -21z m122
-57 c4 -11 -4 -26 -26 -45 -35 -31 -56 -29 -45 5 15 49 58 74 71 40z m631
-115 c2 -15 -2 -37 -9 -49 -11 -22 -12 -22 -25 -4 -15 20 -19 67 -7 79 15 14
38 0 41 -26z m-648 -13 c14 -17 4 -55 -15 -55 -22 0 -69 45 -61 58 10 17 61
15 76 -3z m528 -21 c34 -23 27 -34 -22 -34 -46 0 -62 11 -52 35 7 20 46 19 74
-1z m76 -59 c8 -23 -4 -45 -25 -45 -13 0 -19 7 -19 23 0 37 32 53 44 22z m56
-30 c-7 -9 -15 -13 -17 -11 -7 7 7 26 19 26 6 0 6 -6 -2 -15z m-126 -30 c14
-37 -35 -95 -55 -64 -12 20 -12 23 12 53 23 30 34 33 43 11z m85 -24 c9 -6 11
-18 7 -35 -7 -29 -23 -26 -36 8 -12 33 0 45 29 27z m-20 -95 c-1 -34 -63 -201
-74 -199 -8 2 -65 190 -65 217 0 4 11 5 25 2 20 -5 31 -1 48 18 l22 25 22 -21
c13 -12 23 -31 22 -42z m-221 18 c2 -11 -2 -33 -8 -48 -9 -23 -13 -26 -25 -16
-15 13 -21 71 -8 84 13 13 38 1 41 -20z m-119 -43 l24 -19 -22 -11 c-35 -19
-75 -10 -79 18 -6 42 30 48 77 12z m199 -59 c4 -27 -28 -44 -76 -40 l-37 3 45
33 c48 35 63 36 68 4z m-128 -13 c0 -10 -2 -19 -4 -19 -2 0 -11 -3 -19 -6 -18
-7 -31 24 -16 42 14 17 39 7 39 -17z m-84 -115 c-3 -8 -12 -14 -20 -14 -25 0
-27 32 -4 79 l23 46 3 -49 c2 -27 1 -55 -2 -62z m118 35 c29 -23 34 -47 11
-55 -19 -8 -42 11 -61 48 -13 26 -13 28 4 28 11 0 31 -9 46 -21z m-2944 -244
c131 -26 398 -124 407 -150 2 -6 -33 -27 -77 -47 -73 -33 -103 -59 -86 -75 7
-7 125 7 238 28 54 10 72 10 95 0 33 -15 29 -18 -75 -55 -78 -27 -142 -62
-142 -77 0 -17 69 -9 201 22 151 36 148 37 236 -46 47 -44 57 -61 89 -150 39
-110 59 -148 77 -142 18 5 19 46 4 105 -8 28 -11 52 -7 52 15 0 80 -80 104
-127 13 -26 32 -57 40 -68 l16 -20 16 20 c15 19 19 17 111 -80 144 -150 325
-363 481 -568 168 -219 352 -471 347 -475 -1 -2 -34 17 -73 42 -133 85 -182
103 -182 67 0 -26 157 -173 270 -251 51 -36 108 -78 126 -93 38 -32 134 -173
321 -467 159 -251 169 -268 160 -276 -4 -4 -730 -3 -1614 3 l-1608 10 -76 31
c-193 78 -484 127 -451 76 10 -16 84 -52 172 -85 l75 -28 -180 -1 -180 0 7
102 c4 57 14 310 23 563 17 494 28 691 38 701 4 4 60 -5 124 -19 65 -14 148
-29 186 -32 63 -7 67 -6 67 13 0 31 -85 67 -307 132 -69 20 -73 22 -73 50 0
17 2 30 4 30 2 0 48 -12 102 -26 100 -27 244 -46 244 -32 0 15 -149 78 -236
99 -49 12 -94 23 -99 24 -18 4 23 578 43 597 4 3 47 -7 97 -23 178 -58 379
-101 428 -91 45 9 -3 51 -103 90 -80 31 -180 58 -307 83 -62 13 -113 28 -113
34 1 44 43 271 55 295 42 82 382 227 595 254 68 8 306 -3 390 -19z m2824 -91
c19 -7 19 -36 1 -84 -14 -37 -16 -35 -33 32 -7 25 -6 40 1 47 13 13 11 13 31
5z m-84 -84 c0 -5 -4 -10 -10 -10 -5 0 -10 5 -10 10 0 6 5 10 10 10 6 0 10 -4
10 -10z m-2230 -19 c0 -11 -38 -24 -130 -46 -79 -18 -98 -19 -83 -4 36 36 213
78 213 50z m2404 -17 c10 -26 -13 -44 -58 -44 l-41 1 33 29 c36 34 57 38 66
14z m-120 -10 c7 -19 -1 -34 -18 -34 -18 0 -39 27 -31 40 10 16 42 12 49 -6z
m-2144 -69 c0 -12 -189 -69 -199 -60 -4 5 29 18 102 41 29 9 57 17 62 19 17 6
35 5 35 0z m2201 -37 c9 -15 1 -35 -17 -42 -19 -7 -64 40 -64 66 0 17 2 17 37
3 21 -9 40 -21 44 -27z m399 -85 c0 -13 -4 -23 -9 -23 -13 0 -21 27 -20 68 l1
37 13 -30 c8 -16 14 -40 15 -52z m-102 9 c28 -18 28 -20 -5 -33 -40 -15 -73
-4 -73 25 0 12 3 26 7 29 8 9 40 -1 71 -21z m69 -76 c-8 -19 -37 -21 -37 -3 0
7 5 18 12 25 15 15 33 -1 25 -22z m-2273 -116 c4 -27 3 -41 -2 -35 -10 12 -42
125 -41 146 1 25 36 -64 43 -111z m2336 110 c0 -5 -4 -10 -10 -10 -5 0 -10 5
-10 10 0 6 5 10 10 10 6 0 10 -4 10 -10z m-140 -49 c0 -39 -9 -61 -25 -61 -20
0 -24 23 -9 58 16 40 34 41 34 3z m160 -12 c0 -6 -4 -7 -10 -4 -5 3 -10 11
-10 16 0 6 5 7 10 4 6 -3 10 -11 10 -16z m-42 -9 c36 -22 39 -32 16 -51 -20
-16 -38 -6 -65 39 -20 30 -20 32 -2 32 10 0 33 -9 51 -20z m-4019 -76 c147
-44 201 -64 201 -75 0 -32 -456 93 -467 127 -5 16 121 -9 266 -52z m1879 -52
c6 -18 -15 -14 -22 4 -4 10 -1 14 6 12 6 -2 14 -10 16 -16z m4158 -62 c76 -46
117 -80 98 -80 -20 0 -234 110 -234 119 0 25 61 8 136 -39z m-178 -74 c68 -34
126 -75 107 -76 -12 0 -164 85 -179 100 -18 18 3 11 72 -24z m-1970 -44 c5
-31 -27 -80 -39 -61 -10 17 -12 73 -2 83 14 13 38 0 41 -22z m-50 -99 c10 -20
5 -43 -8 -43 -13 0 -32 39 -25 50 9 15 23 12 33 -7z m62 -17 c0 -2 -8 -10 -17
-17 -16 -13 -17 -12 -4 4 13 16 21 21 21 13z m1550 -46 c-6 -12 -14 -20 -17
-17 -2 3 1 14 8 26 17 26 24 19 9 -9z m-5669 -244 c97 -24 175 -53 168 -61
-11 -10 -253 57 -273 76 -15 14 3 11 105 -15z m28 -143 c84 -25 191 -68 191
-77 0 -13 -302 51 -327 69 -10 7 -14 19 -10 29 7 19 16 18 146 -21z m2885
-389 c33 -19 91 -59 130 -89 63 -47 83 -68 135 -138 21 -29 -126 73 -226 157
-134 111 -147 136 -39 70z m1864 -597 c125 -110 283 -290 267 -305 -4 -4 -71
58 -149 138 -146 151 -214 230 -198 230 5 0 41 -28 80 -63z m2132 -257 c-74
-57 -440 -190 -416 -152 20 33 416 192 436 175 3 -2 -6 -13 -20 -23z m67 -80
c6 -30 12 -68 12 -84 l1 -28 -215 3 c-118 2 -215 7 -215 12 0 4 6 7 13 7 21 0
208 75 282 113 94 48 107 46 122 -23z m-6855 0 c114 -26 335 -97 344 -112 21
-33 -364 63 -462 115 l-29 16 28 1 c15 0 68 -9 119 -20z"/>
<path d="M3987 7836 c-9 -26 -12 -46 -8 -46 9 0 35 80 28 87 -3 2 -12 -16 -20
-41z"/>
<path d="M5584 7836 c-117 -27 -204 -90 -204 -148 0 -14 11 -13 83 14 75 28
93 31 202 31 88 0 141 -6 201 -21 290 -74 546 -234 672 -419 47 -69 67 -85 32
-25 -190 322 -534 556 -850 577 -46 3 -99 -1 -136 -9z"/>
<path d="M5550 7188 c0 -32 48 -103 107 -159 72 -67 117 -91 308 -160 66 -24
158 -63 204 -86 46 -24 85 -43 87 -43 26 0 -74 151 -133 199 -56 46 -149 92
-348 170 -99 40 -190 76 -202 81 -16 7 -23 6 -23 -2z m209 -102 c41 -15 78
-29 83 -32 5 -3 -13 -23 -39 -44 l-48 -39 -77 77 c-43 42 -78 80 -78 84 0 8
51 -7 159 -46z m437 -274 c-9 -8 -26 10 -26 26 1 15 2 15 15 -2 8 -11 13 -21
11 -24z"/>
<path d="M6660 6968 c-42 -57 -72 -165 -120 -423 -108 -583 -133 -690 -199
-830 -42 -91 -57 -106 -108 -114 -48 -8 -56 -31 -11 -31 130 2 199 185 318
840 69 382 89 459 147 552 26 42 27 48 13 48 -5 0 -24 -19 -40 -42z"/>
<path d="M5980 5679 c0 -25 18 -60 39 -76 25 -20 61 -15 93 12 25 21 36 24 69
19 24 -4 39 -3 39 4 0 29 -113 19 -140 -13 -7 -8 -18 -15 -25 -15 -18 0 -55
48 -55 71 0 11 -4 19 -10 19 -5 0 -10 -9 -10 -21z"/>
<path d="M5805 5393 c-119 -5 -119 -5 -111 -67 11 -99 48 -161 116 -196 63
-32 180 -62 246 -64 72 -1 94 13 94 63 0 38 -26 58 -112 87 -44 14 -77 28 -74
31 2 3 33 -4 68 -15 111 -36 133 -38 162 -8 61 60 8 164 -65 126 -15 -8 -19
-7 -19 4 0 8 -10 22 -22 30 -22 16 -83 18 -283 9z"/>
<path d="M1947 5680 c-16 -13 -29 -36 -34 -63 -8 -39 -11 -42 -52 -49 -74 -13
-115 -56 -97 -103 7 -18 47 -20 64 -3 18 18 14 2 -13 -52 -14 -27 -25 -63 -25
-80 0 -25 4 -30 25 -30 26 0 65 31 65 53 0 6 4 19 10 27 7 12 12 12 29 -4 30
-27 71 -17 94 22 17 29 18 37 7 58 -12 22 -10 27 33 67 46 42 56 68 38 96 -6
10 -19 12 -44 7 -35 -7 -36 -6 -39 31 -4 45 -23 53 -61 23z m43 -34 c0 -30
-20 -86 -30 -86 -25 0 -27 85 -2 99 26 16 32 13 32 -13z m80 -58 c0 -13 -77
-88 -91 -88 -12 0 -5 12 34 63 28 36 57 49 57 25z m-180 -53 c0 -7 -81 -65
-92 -65 -17 0 -7 39 14 54 21 15 78 23 78 11z m60 -13 c0 -16 -32 -52 -46 -52
-19 0 -18 19 3 42 16 18 43 25 43 10z m50 -89 c-1 -25 -24 -53 -43 -53 -9 0
-23 10 -32 22 -14 21 -14 24 2 35 26 20 73 17 73 -4z m-142 -70 c-15 -32 -48
-44 -48 -17 0 10 12 36 28 58 27 39 27 39 30 13 2 -15 -3 -39 -10 -54z"/>
<path d="M3076 5598 c-9 -12 -16 -33 -16 -46 0 -19 -4 -23 -17 -17 -107 46
-117 45 -128 -16 -7 -35 -6 -37 35 -53 39 -15 41 -18 27 -34 -32 -37 -48 -81
-37 -102 17 -32 57 -36 85 -10 l24 22 38 -31 c45 -38 53 -38 83 -6 l24 25 -22
30 c-28 37 -28 40 6 40 32 0 72 32 72 59 0 26 -34 53 -62 49 -21 -3 -23 0 -20
30 7 68 -57 110 -92 60z m62 -43 c3 -31 -21 -76 -33 -63 -4 4 -10 28 -13 53
-5 45 -4 47 19 43 18 -2 25 -10 27 -33z m-127 -30 c39 -21 28 -35 -27 -35 -37
0 -44 3 -44 19 0 18 12 28 33 30 4 1 21 -6 38 -14z m84 -75 c0 -29 -32 -41
-41 -16 -9 24 4 48 23 44 12 -2 18 -12 18 -28z m119 24 c39 -15 -9 -54 -65
-54 -28 0 -23 27 9 44 31 18 35 18 56 10z m-203 -137 c-14 -14 -41 -1 -41 21
0 11 10 32 23 48 l22 29 3 -44 c2 -24 -1 -48 -7 -54z m127 27 c18 -12 20 -18
12 -34 -6 -11 -17 -20 -25 -20 -14 0 -55 55 -55 73 0 10 38 0 68 -19z"/>
<path d="M1356 5337 c-12 -9 -22 -32 -25 -58 l-6 -44 -48 3 c-65 5 -99 -17
-95 -61 3 -28 7 -32 36 -35 17 -2 32 -5 32 -8 0 -3 -9 -22 -19 -42 -29 -58
-37 -110 -17 -118 22 -8 62 20 81 57 l16 30 30 -25 c36 -31 65 -24 93 23 18
31 18 32 0 53 -14 16 -16 22 -6 25 20 7 71 53 83 74 7 13 6 26 -2 40 -9 17
-17 20 -45 16 -36 -6 -37 -4 -46 58 -4 24 -36 31 -62 12z m44 -56 c0 -20 -6
-46 -14 -56 -13 -18 -14 -18 -25 3 -15 29 -14 53 5 80 21 30 34 19 34 -27z
m83 -47 c11 -11 -13 -43 -44 -60 -47 -24 -55 -12 -19 29 31 35 49 44 63 31z
m-186 -31 c5 -13 -46 -43 -72 -43 -21 0 -19 36 3 49 22 14 64 10 69 -6z m63
-24 c0 -20 -21 -49 -35 -49 -22 0 -25 15 -9 38 16 23 44 30 44 11z m-73 -105
c-6 -35 -31 -74 -49 -74 -15 0 -8 44 12 78 27 44 44 42 37 -4z m117 23 c15
-11 17 -17 7 -35 -15 -28 -46 -28 -65 0 -27 38 17 65 58 35z"/>
<path d="M3500 5165 c-8 -9 -10 -27 -6 -46 3 -17 2 -29 -2 -27 -103 53 -126
55 -142 13 -12 -32 6 -65 40 -71 16 -4 30 -9 30 -12 0 -3 -14 -28 -32 -55 -35
-55 -32 -72 17 -96 26 -13 30 -12 46 8 10 12 19 27 21 33 3 8 18 -3 37 -25 39
-44 64 -47 88 -11 13 21 15 32 6 54 -12 33 -8 40 22 40 23 0 55 28 55 48 0 6
-5 23 -12 37 -9 19 -19 25 -44 25 -32 0 -33 1 -36 48 -3 46 -4 47 -39 50 -23
2 -40 -2 -49 -13z m54 -11 c20 -8 21 -54 2 -80 -14 -18 -15 -18 -25 9 -12 32
-14 61 -4 70 8 8 8 8 27 1z m-114 -59 c43 -22 37 -35 -14 -35 -46 0 -62 11
-52 35 7 19 29 19 66 0z m214 -60 c8 -22 -22 -45 -60 -45 -40 0 -45 20 -11 43
28 20 63 21 71 2z m-129 -5 c8 -13 -13 -40 -30 -40 -15 0 -28 27 -19 41 7 12
41 11 49 -1z m-74 -52 c5 -48 -18 -85 -45 -75 -22 9 -20 29 5 61 22 28 38 34
40 14z m124 -69 c0 -37 -31 -36 -54 2 -25 41 -19 52 22 36 24 -10 32 -20 32
-38z"/>
<path d="M1355 2482 c-23 -106 120 -572 176 -572 17 0 9 104 -16 213 -37 165
-90 308 -138 371 -14 19 -15 18 -22 -12z m51 -89 c48 -116 104 -319 104 -381
0 -39 -14 -17 -45 68 -66 187 -116 447 -59 313z"/>
<path d="M1785 2452 c-120 -37 -119 -36 -112 -91 8 -64 44 -175 65 -201 l18
-22 75 20 c148 40 179 54 179 82 0 36 -36 174 -55 210 -20 38 -48 39 -170 2z
m154 -95 c12 -45 25 -90 28 -99 4 -13 -3 -19 -23 -23 -16 -3 -54 -13 -84 -21
-104 -30 -98 -30 -106 12 -4 22 -15 63 -25 93 -24 68 -24 71 4 72 12 0 54 11
92 24 39 12 75 23 80 24 6 0 21 -36 34 -82z"/>
<path d="M1803 2355 c-29 -21 -29 -58 -1 -85 29 -26 56 -22 81 13 l21 27 -21
28 c-24 33 -50 38 -80 17z m67 -39 c0 -20 -27 -39 -45 -32 -25 9 -30 37 -10
52 20 15 55 2 55 -20z"/>
<path d="M1520 2398 c0 -54 50 -242 81 -305 31 -63 55 -64 51 -3 -6 105 -87
338 -119 348 -9 3 -13 -10 -13 -40z m84 -188 c26 -102 28 -116 18 -105 -12 12
-72 215 -72 241 1 25 36 -65 54 -136z"/>
<path d="M160 2152 c0 -34 203 -108 346 -127 55 -7 78 6 53 29 -53 49 -399
133 -399 98z m205 -48 c50 -14 100 -28 113 -31 26 -6 40 -23 19 -23 -14 0
-145 37 -232 65 -78 25 6 16 100 -11z"/>
<path d="M1897 2095 c-124 -37 -165 -54 -186 -79 -22 -26 8 -29 102 -12 142
27 265 73 296 110 24 28 -82 19 -212 -19z m93 -17 c-74 -27 -192 -59 -198 -53
-6 6 33 21 133 50 98 29 141 31 65 3z"/>
<path d="M2170 2023 c-178 -28 -482 -126 -505 -162 -15 -25 17 -43 64 -36 135
19 393 101 478 151 43 25 45 28 28 40 -10 8 -24 13 -29 13 -6 -1 -22 -3 -36
-6z m30 -18 c0 -29 -397 -155 -485 -154 -75 0 341 138 478 158 4 1 7 -1 7 -4z"/>
<path d="M740 1988 c-53 -87 -140 -391 -140 -489 0 -32 4 -59 8 -59 13 0 37
31 61 77 24 49 95 282 111 368 22 113 0 169 -40 103z m0 -155 c-37 -158 -98
-339 -111 -326 -17 18 42 251 103 409 19 50 23 55 26 32 2 -14 -6 -66 -18
-115z"/>
<path d="M192 1993 c-13 -24 -59 -170 -67 -211 -6 -30 -4 -33 37 -51 56 -24
166 -51 206 -51 42 0 57 25 84 135 30 122 26 129 -112 167 -123 33 -136 34
-148 11z m156 -59 c45 -9 82 -20 82 -24 0 -18 -52 -186 -60 -194 -6 -6 -14 -5
-22 2 -8 6 -47 20 -87 31 -41 11 -76 23 -79 26 -7 7 13 95 32 140 17 41 21 41
134 19z"/>
<path d="M260 1880 c-11 -11 -20 -29 -20 -40 0 -25 34 -60 58 -60 44 0 69 72
36 104 -21 22 -50 20 -74 -4z m58 -37 c-4 -33 -41 -45 -52 -17 -8 21 11 44 36
44 15 0 19 -6 16 -27z"/>
<path d="M585 1948 c-21 -31 -82 -221 -94 -297 -17 -108 7 -121 52 -27 53 107
99 346 68 346 -6 0 -17 -10 -26 -22z m-18 -176 c-31 -108 -46 -146 -53 -139
-5 5 17 90 53 202 27 83 27 31 0 -63z"/>
<path d="M1440 1560 c-13 -9 -11 -13 10 -30 54 -42 259 -111 433 -146 70 -13
93 -14 113 -5 23 10 24 14 13 28 -30 36 -236 106 -416 143 -114 23 -132 24
-153 10z m225 -51 c147 -36 295 -87 295 -100 0 -5 -10 -9 -22 -9 -62 0 -400
99 -435 126 -16 14 -13 15 32 9 28 -4 86 -15 130 -26z"/>
<path d="M1291 1472 c-69 -97 -171 -457 -154 -545 8 -41 24 -29 59 42 69 138
145 441 128 503 l-10 32 -23 -32z m-24 -222 c-51 -200 -119 -363 -102 -245 13
97 66 281 108 380 36 82 33 20 -6 -135z"/>
<path d="M1484 1398 c-12 -20 30 -44 148 -83 114 -38 258 -59 258 -37 0 25
-137 81 -280 113 -100 22 -116 23 -126 7z m238 -65 c46 -14 78 -28 71 -30 -15
-5 -163 32 -206 52 l-32 15 42 -5 c23 -3 80 -17 125 -32z"/>
<path d="M1386 1312 c-51 -101 -108 -334 -86 -356 8 -8 16 -5 31 12 35 44 119
342 105 378 -10 25 -25 15 -50 -34z m7 -92 c-14 -61 -61 -201 -71 -210 -8 -8
5 45 40 163 34 115 54 145 31 47z"/>
<path d="M1520 1233 c-42 -54 -89 -259 -59 -260 8 0 68 -17 133 -37 94 -29
121 -34 128 -24 14 22 59 169 65 214 5 37 2 44 -19 58 -14 9 -49 23 -79 32
-165 48 -146 46 -169 17z m227 -86 c1 -2 -11 -47 -28 -101 -22 -72 -33 -95
-42 -88 -7 6 -50 20 -97 32 -47 13 -86 24 -87 24 -1 1 11 45 28 98 l29 96 97
-29 c53 -16 98 -30 100 -32z"/>
<path d="M1581 1121 c-26 -26 -27 -53 -3 -74 49 -44 102 -4 78 58 -15 37 -47
44 -75 16z m59 -36 c0 -20 -5 -25 -25 -25 -20 0 -25 5 -25 25 0 20 5 25 25 25
20 0 25 -5 25 -25z"/>
<path d="M2060 1228 c-46 -76 -110 -280 -140 -446 -21 -122 12 -137 64 -29 39
80 85 229 110 354 27 132 10 193 -34 121z m11 -103 c-15 -87 -55 -223 -92
-317 -17 -43 -33 -78 -34 -78 -16 0 47 259 92 379 41 111 51 116 34 16z"/>
<path d="M1905 1191 c-38 -74 -91 -256 -97 -335 -4 -51 15 -57 42 -14 44 72
109 323 94 363 -9 23 -22 18 -39 -14z m9 -78 c-13 -74 -73 -257 -81 -250 -8 9
72 287 83 287 3 0 2 -17 -2 -37z"/>
<path d="M2783 1068 c-74 -71 -168 -189 -235 -293 -56 -87 -65 -113 -43 -121
48 -19 375 387 375 465 0 26 -36 6 -97 -51z m31 -35 c-82 -129 -268 -352 -282
-339 -17 18 278 396 309 396 5 0 -7 -26 -27 -57z"/>
<path d="M2994 979 c-17 -28 158 -183 270 -239 98 -49 97 -20 -2 71 -64 59
-195 153 -236 168 -17 7 -27 7 -32 0z m151 -105 c56 -39 148 -127 115 -109
-27 15 -175 132 -190 151 -19 23 -7 16 75 -42z"/>
<path d="M2844 913 c-109 -114 -207 -283 -165 -283 17 0 150 151 201 227 81
121 59 156 -36 56z m29 -25 c-82 -110 -146 -188 -150 -184 -3 3 5 20 18 38 29
42 129 158 136 158 3 0 1 -6 -4 -12z"/>
<path d="M350 951 c0 -32 141 -91 335 -141 181 -46 258 -48 242 -6 -13 33
-208 102 -399 140 -86 18 -178 21 -178 7z m216 -41 c167 -43 312 -89 320 -101
18 -30 -245 30 -407 92 -130 50 -92 54 87 9z"/>
<path d="M1340 892 c0 -19 52 -44 173 -84 132 -43 232 -55 232 -28 0 8 -20 25
-45 37 -92 45 -360 101 -360 75z m138 -33 c77 -18 208 -62 196 -66 -20 -7
-254 60 -254 72 0 7 5 7 58 -6z"/>
<path d="M202 855 c-47 -59 -129 -340 -139 -477 -5 -67 -4 -78 10 -78 35 0
121 229 161 427 27 129 12 185 -32 128z m-2 -162 c-23 -99 -60 -218 -86 -278
-14 -31 -19 -36 -22 -20 -8 35 50 258 97 375 22 54 27 61 29 38 2 -14 -6 -66
-18 -115z"/>
<path d="M2924 778 c-27 -29 -65 -77 -84 -107 l-34 -54 49 -44 c64 -57 160
-123 178 -123 8 0 37 26 64 58 107 125 114 148 56 204 -55 52 -147 118 -165
118 -8 0 -37 -24 -64 -52z m158 -67 l75 -55 -66 -82 -66 -83 -30 29 c-16 15
-56 46 -87 68 l-57 39 30 29 c17 16 46 50 66 77 23 31 39 44 47 40 7 -5 47
-32 88 -62z"/>
<path d="M2966 681 c-11 -12 -16 -31 -14 -53 3 -32 4 -33 48 -33 39 0 46 3 54
27 20 57 -48 103 -88 59z m62 -38 c-3 -30 -35 -44 -49 -22 -11 19 8 49 32 49
16 0 20 -5 17 -27z"/>
<path d="M402 788 c11 -36 246 -117 352 -121 74 -3 70 18 -10 54 -128 58 -352
102 -342 67z m213 -48 c115 -33 155 -49 121 -50 -19 0 -201 50 -246 69 -55 22
18 11 125 -19z"/>
<path d="M1210 782 c0 -37 168 -107 360 -151 117 -26 173 -33 204 -25 56 14 7
48 -141 99 -170 59 -423 105 -423 77z m224 -46 c162 -39 284 -80 306 -101 19
-20 14 -19 -111 9 -182 41 -359 99 -359 117 0 13 9 12 164 -25z"/>
<path d="M327 749 c-40 -62 -107 -285 -107 -358 0 -49 22 -56 43 -13 49 96
108 345 89 378 -8 15 -11 14 -25 -7z m-7 -115 c-18 -82 -60 -213 -70 -219 -5
-3 -8 0 -6 7 2 7 9 36 16 63 18 74 61 207 66 202 3 -2 0 -26 -6 -53z"/>
<path d="M998 643 c-39 -45 -89 -182 -133 -363 -30 -128 -33 -203 -8 -198 37
7 98 161 149 375 24 102 32 203 16 203 -5 0 -16 -8 -24 -17z m-27 -223 c-35
-137 -89 -290 -102 -290 -5 0 -7 10 -5 22 3 13 7 39 11 59 8 53 69 264 97 334
23 59 23 60 26 25 2 -19 -10 -87 -27 -150z"/>
<path d="M429 622 c-13 -31 -69 -221 -69 -232 0 -9 133 -53 214 -71 54 -12 60
-11 73 6 17 24 58 154 67 212 l6 42 -92 29 c-51 16 -115 32 -141 36 -45 5 -48
4 -58 -22z m204 -62 c20 -6 37 -16 37 -21 0 -6 -12 -49 -26 -96 l-27 -85 -30
6 c-75 15 -167 48 -167 60 0 19 31 118 46 148 l14 26 57 -14 c32 -8 75 -19 96
-24z"/>
<path d="M500 520 c-24 -24 -25 -48 -4 -78 30 -43 94 -18 94 37 0 30 -27 61
-53 61 -9 0 -26 -9 -37 -20z m58 -37 c-4 -34 -33 -43 -43 -14 -8 27 1 41 26
41 16 0 20 -6 17 -27z"/>
<path d="M3270 585 c-76 -74 -190 -227 -190 -256 0 -35 34 -20 95 44 56 57
164 208 178 249 14 40 -18 25 -83 -37z m19 -27 c-49 -70 -162 -209 -167 -204
-9 9 169 236 185 236 2 0 -6 -15 -18 -32z"/>
<path d="M3410 553 c-132 -142 -291 -368 -275 -393 12 -20 34 -9 90 41 157
144 337 429 271 429 -8 0 -46 -35 -86 -77z m74 25 c-63 -109 -190 -272 -274
-353 l-53 -50 38 60 c58 94 141 200 217 281 68 71 87 88 72 62z"/>
<path d="M832 583 c-60 -85 -130 -383 -89 -383 19 0 41 45 76 153 59 185 66
304 13 230z m1 -85 c-16 -74 -68 -228 -76 -228 -5 0 -6 7 -3 17 4 9 14 46 23
82 16 66 48 151 57 151 2 0 2 -10 -1 -22z"/>
<path d="M2670 559 c0 -29 189 -189 280 -236 67 -35 82 -21 35 34 -90 106
-315 250 -315 202z m227 -153 c35 -27 61 -51 59 -54 -10 -9 -226 154 -226 171
0 10 71 -40 167 -117z"/>
<path d="M2513 504 c-16 -42 304 -302 441 -359 33 -14 37 -14 43 2 12 31 -214
230 -367 322 -72 44 -109 55 -117 35z m110 -57 c126 -81 349 -268 336 -282
-15 -14 -378 263 -392 299 -9 22 -3 21 56 -17z"/>
<path d="M273 293 c-22 -8 -14 -22 25 -42 128 -65 413 -116 372 -66 -35 42
-350 128 -397 108z m197 -53 c63 -17 119 -35 125 -41 13 -14 -29 -6 -150 28
-94 26 -134 42 -105 43 8 0 67 -14 130 -30z"/>
<path d="M6087 1992 c-25 -28 -117 -199 -117 -216 0 -19 104 -88 170 -113 25
-9 49 -22 53 -27 20 -27 147 166 147 223 0 22 -56 63 -148 110 -76 39 -89 41
-105 23z m122 -83 c50 -28 91 -53 91 -55 0 -3 -6 -15 -14 -27 -7 -12 -30 -52
-50 -89 l-37 -67 -47 33 c-26 19 -66 43 -90 55 -24 12 -42 26 -40 30 3 9 92
170 94 171 1 0 42 -23 93 -51z"/>
<path d="M6128 1869 c-54 -31 -36 -99 25 -99 40 0 57 15 57 51 0 48 -41 72
-82 48z m55 -44 c-3 -18 -37 -35 -52 -25 -12 7 -13 11 -1 25 14 17 56 17 53 0z"/>
<path d="M6623 1857 c-55 -50 -110 -138 -195 -312 -66 -135 -79 -177 -58 -190
20 -12 96 87 188 245 75 129 114 222 110 263 l-3 32 -42 -38z m-22 -119 c-48
-101 -164 -296 -192 -323 l-21 -20 7 25 c26 86 233 440 242 413 3 -7 -14 -49
-36 -95z"/>
<path d="M6452 1845 c-59 -66 -172 -279 -172 -322 0 -41 29 -24 78 46 90 128
169 311 134 311 -5 0 -24 -16 -40 -35z m-37 -132 c-53 -98 -85 -146 -92 -140
-9 10 115 227 130 227 5 0 -12 -39 -38 -87z"/>
<path d="M5840 1695 c0 -37 255 -192 348 -210 48 -10 42 18 -15 60 -53 39
-296 165 -319 165 -8 0 -14 -7 -14 -15z m113 -51 c85 -43 197 -108 197 -116 0
-5 -24 4 -52 18 -64 32 -188 105 -188 110 0 7 11 4 43 -12z"/>
<path d="M5690 1613 c0 -60 473 -323 536 -299 63 24 -365 289 -490 303 -26 3
-46 1 -46 -4z m185 -76 c83 -41 266 -146 299 -172 92 -70 -191 58 -335 153
-130 85 -113 94 36 19z"/>
<path d="M5236 1098 c-112 -78 -356 -327 -356 -364 0 -51 122 29 287 189 110
107 143 148 158 195 10 34 -21 28 -89 -20z m-26 -94 c-94 -95 -260 -244 -272
-244 -20 0 -2 26 80 111 93 99 237 219 262 219 8 0 -24 -39 -70 -86z"/>
<path d="M5460 1114 c0 -30 93 -148 209 -265 142 -144 211 -189 211 -141 0 60
-347 422 -404 422 -9 0 -16 -7 -16 -16z m185 -150 c111 -112 211 -232 201
-242 -16 -15 -356 339 -356 371 0 19 50 -23 155 -129z"/>
<path d="M6830 1070 c-73 -13 -167 -48 -295 -110 -163 -79 -203 -120 -118
-120 107 0 490 173 481 218 -4 20 -13 21 -68 12z m22 -36 c-42 -29 -196 -97
-311 -135 -125 -43 -139 -46 -122 -25 24 29 381 175 431 176 l24 0 -22 -16z"/>
<path d="M5245 907 c-106 -84 -195 -181 -195 -213 0 -32 10 -31 67 13 169 128
282 263 220 263 -7 0 -48 -28 -92 -63z m-35 -88 c-47 -43 -89 -79 -95 -78 -5
0 30 38 79 85 49 46 92 82 95 78 3 -3 -32 -42 -79 -85z"/>
<path d="M5420 951 c0 -42 190 -250 262 -287 82 -43 33 42 -107 184 -118 118
-155 143 -155 103z m240 -235 c0 -13 -69 54 -133 129 -42 50 -35 45 41 -30 51
-49 92 -94 92 -99z"/>
<path d="M6795 893 c-93 -21 -288 -119 -294 -148 -3 -16 2 -17 42 -12 111 15
347 125 347 161 0 7 -64 6 -95 -1z m21 -32 c-6 -9 -166 -76 -218 -92 -16 -4
-28 -4 -28 1 0 8 88 47 180 79 64 23 73 24 66 12z"/>
<path d="M7092 855 c0 -16 2 -22 5 -12 2 9 2 23 0 30 -3 6 -5 -1 -5 -18z"/>
<path d="M6943 811 c8 -64 70 -252 105 -315 91 -166 53 88 -44 292 -43 89 -70
99 -61 23z m81 -142 c45 -127 51 -146 38 -134 -12 11 -53 118 -77 198 -25 83
3 38 39 -64z"/>
<path d="M5281 740 c-50 -49 -91 -95 -91 -103 0 -16 79 -109 142 -166 56 -51
44 -55 161 58 42 42 77 83 77 93 0 17 -175 208 -190 208 -5 0 -49 -40 -99 -90z
m179 -45 c41 -41 72 -76 69 -78 -2 -2 -37 -33 -76 -70 l-73 -65 -70 72 c-38
40 -70 76 -70 81 0 9 130 134 140 135 3 0 39 -34 80 -75z"/>
<path d="M5340 670 c-32 -32 -25 -66 18 -89 55 -29 101 57 50 93 -30 21 -44
20 -68 -4z m61 -21 c14 -26 -8 -53 -34 -43 -20 7 -22 35 -5 52 17 17 26 15 39
-9z"/>
<path d="M6845 740 c-3 -5 -19 -10 -34 -10 -34 0 -171 -68 -185 -92 -12 -20
11 -99 59 -205 l33 -71 63 23 c35 13 90 34 122 49 l57 25 -6 43 c-8 49 -41
144 -73 206 -23 45 -26 48 -36 32z m18 -107 c29 -67 51 -133 45 -138 -6 -6
-171 -75 -173 -72 -7 9 -65 181 -65 191 0 10 134 73 161 75 4 1 18 -25 32 -56z"/>
<path d="M6753 594 c-28 -28 -26 -67 5 -91 24 -18 39 -16 62 7 34 34 22 88
-23 104 -12 4 -27 -3 -44 -20z m55 -48 c-2 -13 -10 -21 -23 -21 -23 0 -32 30
-14 51 16 19 41 -1 37 -30z"/>
<path d="M6313 704 c-20 -54 136 -497 204 -578 l26 -31 -5 80 c-7 90 -69 295
-132 430 -49 107 -78 137 -93 99z m150 -324 c25 -74 47 -151 51 -170 5 -32 5
-34 -9 -16 -31 41 -148 365 -159 442 -10 65 66 -100 117 -256z"/>
<path d="M6480 644 c0 -80 90 -342 130 -379 18 -16 20 -16 26 -1 16 42 -83
339 -132 394 l-23 27 -1 -41z m43 -61 c3 -10 22 -64 41 -121 35 -99 45 -144
27 -112 -19 31 -90 250 -82 250 5 0 11 -8 14 -17z"/>
<path d="M5049 573 c39 -75 161 -204 250 -265 33 -23 41 -22 41 1 0 55 -240
301 -294 301 -15 0 -15 -3 3 -37z m175 -144 c42 -45 74 -85 71 -87 -7 -7 -36
20 -119 112 -39 44 -61 74 -50 68 12 -6 56 -48 98 -93z"/>
<path d="M5656 559 c-54 -36 -215 -191 -241 -232 -31 -48 -5 -52 58 -10 147
99 299 273 238 273 -4 0 -29 -14 -55 -31z m-80 -125 c-49 -46 -92 -81 -95 -78
-3 4 34 44 83 90 49 46 92 81 95 78 3 -4 -34 -44 -83 -90z"/>
<path d="M5799 507 c-70 -47 -272 -236 -331 -310 -46 -59 -50 -82 -11 -72 92
23 423 336 423 399 0 29 -18 25 -81 -17z m22 -34 c-52 -72 -336 -331 -349
-319 -13 13 167 194 306 307 56 45 71 49 43 12z"/>
<path d="M6951 360 c-73 -22 -207 -83 -233 -107 -51 -46 6 -57 104 -19 148 56
255 117 243 137 -9 13 -42 10 -114 -11z m14 -37 c-60 -31 -206 -86 -212 -79
-7 6 28 24 132 67 104 44 155 51 80 12z"/>
</g>
</svg>
